<svg width="1044" height="1000" viewBox="0 0 1044 1000" fill="none" xmlns="http://www.w3.org/2000/svg">
<path d="M256.987 60.7291V458.878H216.879V60.7291H256.987Z" fill="black"/>
<path d="M386.61 334.827C386.61 295.327 360.27 275.026 344.703 260.137C311.226 227.88 299.241 198.556 299.241 170.584C299.241 108.55 349.551 58.4732 411.792 58.4732V98.402C371.663 98.402 339.344 130.659 339.344 170.584C339.344 193.369 348.312 210.511 374.086 232.165C389.007 244.573 403.389 258.333 415.347 282.246C421.353 292.844 426.74 313.149 426.74 334.827C426.74 404.528 369.885 461.382 299.241 461.382V421.226C347.746 421.226 386.61 382.416 386.61 334.827Z" fill="black"/>
<path d="M615.644 58.4732V99.078C603.067 104.265 588.739 108.55 576.134 116.221C525.259 144.869 491.135 198.556 491.135 260.137C491.135 321.495 525.878 375.872 576.134 404.07C588.739 409.268 599.485 415.355 615.644 420.095V461.382C601.262 458.204 588.119 454.165 576.134 448.724C502.528 417.159 451.033 344.28 451.033 260.137C451.033 174.869 503.12 102.008 576.134 70.88C588.119 66.1431 601.262 62.0827 615.644 58.4732Z" fill="black"/>
<path fill-rule="evenodd" clip-rule="evenodd" d="M10 58.4732V460.925C24.3663 457.774 37.535 453.707 50.1125 448.293C123.733 416.701 174.613 343.849 174.613 259.687C174.613 174.419 123.143 101.559 50.1125 70.4291C37.535 65.6917 24.3663 61.6316 10 58.0221V58.4732ZM134.5 260.137C134.5 198.556 100.385 144.869 50.1125 116.221V404.07C99.7949 375.872 134.5 321.495 134.5 260.137Z" fill="black"/>
<path fill-rule="evenodd" clip-rule="evenodd" d="M808.777 55.9922C695.607 55.9922 604.036 147.352 604.036 260.137C604.036 372.263 695.607 463.618 808.777 463.618C921.894 463.618 1013.46 372.263 1013.46 260.137C1013.46 147.352 921.894 55.9922 808.777 55.9922ZM973.362 260.137C973.362 169.455 899.729 95.9216 808.777 95.9216C717.772 95.9216 644.166 169.455 644.166 260.137C644.166 350.824 717.772 423.704 808.777 423.704C899.729 423.704 973.362 350.824 973.362 260.137Z" fill="black"/>
<path d="M50.0757 581.024C73.48 581.024 92.6021 600.198 92.6021 623.432C92.6021 646.664 73.48 665.162 50.0757 665.162V581.024ZM42.292 543.354H10V944.007C23.17 944.007 36.3401 941.853 50.0757 938.594C120.127 920.522 172.215 856.234 172.215 779.757C172.215 732.611 151.881 690.203 120.127 660.427C126.106 649.6 129.715 636.519 129.715 623.435C129.715 579.223 96.1841 543.354 42.292 543.354ZM91.9826 689.078C118.323 715.919 132.112 747.5 132.112 780.885C132.112 835.254 97.3693 881.282 50.0757 897.98V702.837C64.4844 700.575 77.0352 697.424 91.9826 689.078ZM376.094 941.503V862.106H395.782V824.427H376.094V636.519C376.094 601.326 372.485 586.89 361.146 570.2C346.656 549.896 324.06 538.617 295.808 538.617C264.755 538.617 238.55 554.182 225.272 580.351C218.673 594.108 216.276 607.192 216.276 639.452V824.427H196.508V862.106H216.276V941.503H256.406V862.106H336.045V941.503H376.094ZM336.045 824.427H256.406V620.502C256.406 593.432 273.131 575.614 298.286 575.614C321.555 575.614 336.045 592.98 336.045 619.826V824.427ZM470.438 581.027C493.735 581.027 512.965 600.2 512.965 623.435C512.965 646.667 493.735 665.164 470.438 665.164V581.027ZM462.736 543.354H430.363V944.007C443.533 944.007 456.649 941.853 470.438 938.594C540.544 920.522 592.604 856.234 592.604 779.757C592.604 732.611 572.243 690.203 540.544 660.427C546.442 649.6 550.051 636.519 550.051 623.435C550.051 579.223 516.601 543.354 462.736 543.354ZM512.238 689.078C538.739 715.919 552.529 747.5 552.529 780.885C552.529 835.254 517.732 881.282 470.438 897.98V702.837C484.901 700.575 497.344 697.424 512.238 689.078ZM756.408 941.503V903.851H676.795V660.879H776.769V623.435H676.795V581.027H756.408V543.354H636.693V623.435H616.79V660.879H636.693V941.503H756.408ZM842.403 742.762C857.728 757.651 884.203 777.952 884.203 817.452C884.203 865.041 845.312 903.851 796.888 903.851V944.007C867.478 944.007 924.251 887.153 924.251 817.452C924.251 795.774 918.865 775.469 912.967 764.871C900.982 740.958 886.465 727.198 871.544 714.79C845.743 693.136 836.963 675.994 836.963 653.209C836.963 613.284 869.309 581.027 909.358 581.027V541.098C847.117 541.098 796.888 591.175 796.888 653.209C796.888 681.181 808.657 710.505 842.403 742.762Z" fill="black"/>
</svg>
